<svg width="72" height="36" xmlns="http://www.w3.org/2000/svg"><g fill-rule="nonzero" fill="none"><path fill="#295EAC" d="M0 0h72v36H0z"/><g fill="#FFF100"><path d="M7.93 32C5.63 32 4 30.44 4 28.23V7.76C4 5.56 5.63 4 7.93 4h56.14C66.37 4 68 5.56 68 7.77v20.47c0 2.2-1.63 3.76-3.93 3.76H7.93zm55.52-.85c2.25 0 3.6-1.25 3.6-3.36V8.21c0-2.1-1.35-3.36-3.6-3.36H8.55c-2.25 0-3.6 1.25-3.6 3.36v19.58c0 2.1 1.35 3.36 3.6 3.36h54.9z"/><path d="M58.17 23.7c-2.72 0-5.29-1.39-5.29-4.43s2.57-4.43 5.29-4.43c2.71 0 5.28 1.4 5.28 4.43 0 3.04-2.57 4.43-5.28 4.43zm-45.84-2.56h6.3l1.16 2.34h3.71L17.63 12H13.6L8 23.48h3.26l1.07-2.34zm14.51-9.02H24v11.36h2.85V12.12zm10.27 9.71v-4.55c-.55-2.18-3.17-2.32-4.66-2.32-2.15 0-4.39.36-4.7 2.94h2.78c.08-.5.2-1.29 1.59-1.29.71 0 1.93.05 1.93.98 0 .48-.53.62-.97.67l-2.6.3c-1.76.2-3.07 1.04-3.07 2.69 0 1.74 1.62 2.45 3.2 2.45a5.1 5.1 0 0 0 3.52-1.22c.06.48.1.6.26 1h2.75l-.03-1.65zm15.36-4c0-1.85-1.92-2.58-3.95-2.58-1.65 0-2.4.93-2.76 1.34-.7-.9-1.38-1.34-2.88-1.34-1.83 0-1.9.78-2.24 1.34l-.04-1.24h-2.84v8.13h2.96v-4.84c0-.91.4-1.43 1.69-1.4 1.25.02 1.29.76 1.29 1.47v4.77h3.07v-4.76c0-1 .25-1.52 1.62-1.49 1.03.03 1.43.43 1.36 1.43v4.82h2.72v-5.65zm5.7-1.12c-2.05 0-2.43 1.49-2.44 2.56 0 1.08.39 2.57 2.44 2.57s2.43-1.5 2.43-2.57c0-1.07-.38-2.56-2.43-2.56zm-42.75-2.26l2.14 4.5H13.4l2.01-4.5zm18.52 6c0 1.04-1.25 1.67-2.48 1.67-.53 0-1.28-.24-1.28-1.01 0-.92.85-1.13 1.88-1.27a4.75 4.75 0 0 0 1.88-.46v1.08zm30.55-5.94c0 .75-.56 1.2-1.19 1.2-.63 0-1.2-.45-1.2-1.2s.57-1.19 1.2-1.19 1.2.44 1.2 1.2zm-.34 0c0-.54-.39-.9-.85-.9-.47 0-.85.36-.85.9 0 .55.38.92.85.91.46 0 .85-.36.85-.9zm-.3.64h-.32l-.3-.54h-.13v.54h-.27v-1.28h.48c.33 0 .52.1.52.39 0 .23-.13.32-.3.33l.32.56zm-.3-.92c0-.13-.15-.14-.25-.14h-.2v.3h.25c.12 0 .2-.02.2-.16z"/></g></g></svg>