<svg width="72" height="36" xmlns="http://www.w3.org/2000/svg"><g fill-rule="nonzero" fill="none"><path fill="#FFF" d="M0 0h72v36H0z"/><path d="M48.47 10.02l-5.53 16.3H38.9l5.53-16.3h4.04zm-6.22 0l-8.54 16.3h-5.86l-.3-16.3h4.24l.17 11.38 5.95-11.38h4.34zm-17.8 16.3h-3.68l-.03-3.84h-4.1l-1.96 3.84h-4.33l8.54-16.3h5.4l.16 16.3zM60.88 11.2l-1.23 3.6c-.68-.34-1.3-.6-1.84-.76-.54-.17-1-.25-1.37-.25-.42 0-.74.07-.96.2-.22.13-.37.3-.46.5-.13.19-.2.44-.2.74 0 .22.04.41.12.58.07.16.35.46.82.88l1.34 1.23c.42.4.7.7.81.89.13.2.27.52.45.98.18.46.27.98.27 1.54a5.64 5.64 0 0 1-2.93 4.68 8.35 8.35 0 0 1-6.65.38 7.01 7.01 0 0 1-2.2-1.32l1.25-3.8c.73.44 1.45.79 2.15 1.05.71.26 1.46.4 2.25.4.45 0 .81-.13 1.11-.38.3-.26.45-.56.45-.9 0-.42-.24-.8-.73-1.12-.8-.64-1.42-1.19-1.88-1.66a4.36 4.36 0 0 1-.93-1.24 4.55 4.55 0 0 1-.4-1.96c0-.83.18-1.64.55-2.44.36-.8.9-1.46 1.64-2a6.7 6.7 0 0 1 2.05-1.08 7.84 7.84 0 0 1 4.78.2c.85.31 1.43.67 1.74 1.06zm1.22 14.17c0 .41-.14.76-.43 1.05-.29.28-.65.42-1.1.42-.39 0-.74-.14-1.05-.42-.31-.29-.46-.64-.46-1.05 0-.42.14-.77.44-1.07.3-.3.66-.44 1.08-.44a1.46 1.46 0 0 1 1.52 1.5zm-41.43-6.43l-.03-4.13-2.12 4.13h2.15zm41.23 6.43c0-.37-.12-.69-.36-.95-.25-.27-.57-.4-.96-.4-.36 0-.66.13-.93.4-.26.26-.4.58-.4.95s.13.68.38.93c.26.25.57.38.95.38a1.29 1.29 0 0 0 1.32-1.31zm-.53-.4c0 .29-.19.43-.56.43l.53.79h-.23l-.5-.79h-.4v.79h-.2v-1.67h.73c.2 0 .36.03.47.1.1.06.16.18.16.36zm-.23 0c0-.2-.14-.29-.43-.29h-.5v.59h.33c.4 0 .6-.1.6-.3z" fill="red"/></g></svg>