<svg width="72" height="36" xmlns="http://www.w3.org/2000/svg"><g fill="none" fill-rule="evenodd"><path fill="#FFF" fill-rule="nonzero" d="M0 0h72v36H0z"/><path fill="#F57D14" d="M11.83 21.72h6.86V11.04z"/><path fill="#ED451E" d="M3.45 11.04v10.68l15.24-10.68z"/><path d="M67.85 11.45c.6 0 1.09.5 1.09 1.12a1.1 1.1 0 0 1-1.09 1.11 1.1 1.1 0 0 1-1.08-1.11c0-.62.48-1.12 1.08-1.12zm0 2.07c.5 0 .91-.43.91-.95 0-.53-.4-.95-.9-.95-.51 0-.92.42-.92.95 0 .52.4.95.91.95zm-.42-1.59h.43c.23 0 .45.1.45.37 0 .18-.11.3-.28.34l.33.56h-.27l-.28-.53h-.16v.53h-.22v-1.27zm.4.55c.12 0 .26-.03.26-.18 0-.14-.13-.18-.24-.18h-.2v.36h.17zm-2.62 7.66c-.85 0-1.25-.43-1.25-1.37v-3.56h1.64v-1.55h-1.64v-2.21h-1.68v7.32c0 1.86 1.02 2.97 2.66 2.97.35 0 .69-.05.69-.05v-1.57l-.42.02zm-4.83-5.54a3.51 3.51 0 0 0-2.65-1.12c-2.12 0-3.76 1.84-3.76 4.15 0 2.32 1.6 4.1 3.8 4.1 1.16 0 2.33-.62 3.05-1.57l-1.3-.96c-.44.62-1.17.94-1.75.94-.9 0-1.8-.66-2.03-1.81h5.63s.51-2.09-.99-3.73zm-4.63 2.27c.06-.47.62-1.8 1.99-1.8 1.33 0 1.9 1.29 1.96 1.8h-3.95zm-4.3-3.2v.71c-.6-.59-1.4-.9-2.22-.9-2.15 0-3.83 1.79-3.83 4.12 0 2.35 1.68 4.14 3.83 4.14.78 0 1.57-.3 2.18-.87 0 0 .34 3.02-2.22 3.02-1.08 0-1.84-.8-2.19-1.41l-1.34.98a3.96 3.96 0 0 0 3.53 2.07c.98 0 1.96-.3 2.65-.92a4.09 4.09 0 0 0 1.25-3.18v-7.77h-1.64zm-2.22 6.46c-1.21 0-2.15-1.12-2.15-2.54 0-1.38.96-2.5 2.15-2.5 1.18 0 2.18 1.14 2.18 2.5 0 1.4-.98 2.54-2.18 2.54zm-8.62 1.6c-2.15 0-3.84-1.78-3.84-4.11 0-2.35 1.69-4.14 3.84-4.14.78 0 1.57.3 2.18.87v-3.31h1.67v10.53h-1.63v-.73c-.6.59-1.4.9-2.22.9zm0-6.63c-1.21 0-2.16 1.11-2.16 2.53 0 1.38.97 2.5 2.16 2.5 1.18 0 2.18-1.14 2.18-2.5 0-1.4-.98-2.53-2.18-2.53zm-4.67 2.64v-4.08h-1.68v4.08c0 1.46-.71 2.4-1.83 2.4-1.11 0-1.83-.94-1.83-2.4v-4.08h-1.68v4.08c0 2.44 1.56 4 3.51 4 1.95 0 3.51-1.56 3.51-4zm-14.9 3.94V11.04h3.55c1.38 0 3.04.76 3.04 2.76 0 1.2-.53 1.96-1.02 2.25 1.3.52 1.56 1.8 1.56 2.56 0 1.7-1.35 3.07-3.5 3.07h-3.63zm3.44-1.6c.44 0 .79-.05 1.05-.16.55-.26.88-.73.9-1.41 0-.65-.36-1.15-.9-1.4a2.7 2.7 0 0 0-1.18-.17h-1.6v3.15h1.73zm-.28-4.67c.31 0 .81-.02 1.1-.16.45-.26.59-.65.59-1.25 0-.65-.38-1.03-.7-1.19a2.2 2.2 0 0 0-1.03-.18h-1.41v2.78h1.45z" fill="#202D59"/></g></svg>