<svg height="36" width="72" xmlns="http://www.w3.org/2000/svg"><g fill="none"><path d="m0 0h72v36h-72z" fill="#fff"/><path d="m25.32 13.42a5.73 5.73 0 1 1 0 11.47 5.73 5.73 0 0 1 0-11.47zm0 8.37c1.49 0 2.7-1.2 2.7-2.67a2.69 2.69 0 0 0 -2.7-2.67c-1.5 0-2.71 1.2-2.71 2.67a2.69 2.69 0 0 0 2.7 2.67zm38.1 3.35a1.92 1.92 0 1 1 0-3.83 1.92 1.92 0 0 1 0 3.83zm-27.72-15.44v14.65c0 .26-.22.47-.48.47h-2.1a.48.48 0 0 1 -.48-.47v-14.65c0-.27.21-.48.48-.48h2.1c.26 0 .48.21.48.48zm5.05 0v14.65c0 .26-.21.47-.48.47h-2.1a.48.48 0 0 1 -.48-.47v-14.65c0-.27.22-.48.48-.48h2.1c.27 0 .48.21.48.48zm-21.81 14.5s.15.8-1.07.58-2-.87-2.14-1.16a5.73 5.73 0 1 1 -.92-9.53v-4.4c0-.26.22-.47.48-.47h2.1c.27 0 .48.21.48.48v9.47l-.02 1.84s-.1.78.47.78h.2s.42-.07.42.58v1.82zm-6.8-2.4c1.49 0 2.7-1.2 2.7-2.68a2.69 2.69 0 0 0 -2.7-2.67c-1.5 0-2.71 1.2-2.71 2.67a2.69 2.69 0 0 0 2.7 2.67zm42.65 2.33s.18.82-.98.67c-1.15-.16-2.12-.87-2.24-1.2a5.73 5.73 0 1 1 -3.62-10.18c.96 0 1.86.43 2.66 1.06 0-.49.02-.91.02-.91 0-.27.21-.48.48-.48h2.1c.26 0 .47.21.47.48v7.64s.02.58.39.58h.37s.35-.01.35.5zm-6.75-2.34c1.5 0 2.71-1.2 2.71-2.67a2.69 2.69 0 0 0 -2.7-2.67c-1.5 0-2.71 1.2-2.71 2.67a2.69 2.69 0 0 0 2.7 2.67zm15.6-8.2c.57.17.5.58.34.9-.15.31-.62 1.5-.62 1.5s-.1.58-1.04.43c-.95-.16-1.66.43-1.86.6-.17.14-.64.54-.94 1.63v5.7c0 .26-.22.47-.48.47h-2.1a.48.48 0 0 1 -.48-.47v-10.78c0-.27.22-.48.48-.48h2.1c.26 0 .48.21.48.48v1.43c.28-.64.95-1.6 2.49-1.6a8 8 0 0 0 1.63.18z" fill="#e31837"/></g></svg>