<svg width="72" height="36" xmlns="http://www.w3.org/2000/svg"><g fill="none" fill-rule="evenodd"><path fill="#00A664" d="M0 0h14v36H0z"/><path fill="#231F20" d="M14 0h58v36H14z"/><g fill="#FEFEFE"><path d="M45.37 17.32a2.11 2.11 0 0 0-1.52-.52c-1.23 0-1.98.64-1.98 1.59 0 .42.16.8.46 1.07.37.35.85.52 1.52.52.66 0 1.15-.18 1.52-.52.3-.27.45-.65.45-1.07 0-.41-.15-.79-.45-1.07m-1.44 3.79a3.1 3.1 0 0 1-2.06-.75v2.92h-1.64V15.9h1.64v.54a3.42 3.42 0 0 1 2.06-.68c1.18 0 2.12.33 2.8.91.55.48.83 1.08.83 1.76 0 1.57-1.45 2.67-3.63 2.67M53.64 21h1.8v-5.1h-1.8V21zm.91-5.9c-.35 0-.67-.09-.89-.27-.17-.12-.27-.29-.27-.46 0-.17.1-.34.27-.47.22-.17.54-.28.87-.28.35 0 .68.1.9.28.17.13.26.3.26.47 0 .41-.51.74-1.14.74zM59.26 21.18c-1.4 0-2.22-.27-2.94-.91l-.1-.1.12-.06 1.1-.59.08-.04.07.05c.46.3.88.57 1.67.57.57 0 .98-.13 1.2-.3.1-.08.14-.14.14-.23 0-.42-.84-.55-1.44-.64l-.2-.02c-1.25-.18-2.54-.49-2.54-1.53 0-.36.17-.68.5-.95a4.62 4.62 0 0 1 2.62-.68c1.21 0 2.1.32 2.6.86l.1.1-1.25.6-.08.05-.07-.06c-.4-.3-.78-.46-1.39-.46-.56 0-1.05.16-1.05.45 0 .44.86.56 1.49.63.1.03.2.03.26.05 1.22.18 2.42.5 2.42 1.55 0 1.22-1.82 1.66-3.3 1.66M19.22 20.96V18c0-.35-.12-.62-.35-.82-.33-.27-.82-.33-1.18-.33-1.18 0-1.52.55-1.52 1.52v2.6h-1.78V15.9h1.78v.57c.47-.43 1.13-.7 2.09-.7.9 0 1.66.23 2.13.63.41.34.6.78.6 1.33v3.22h-1.77M21.45 16.93v-1.05h1.17V14.5h1.79v1.38h1.87v1.05h-1.87v2.33c0 .5.2.8 1 .8.32 0 .64-.04.87-.15v1.04c-.38.12-.9.16-1.32.16-1.9 0-2.34-.59-2.34-1.75v-2.43h-1.17M32.34 17.88h-4.12c.15-.4.97-1.12 2.22-1.14 1.26-.02 1.88.51 2.14.9.12.2-.07.24-.24.24m-.04 1.64c-.56.34-.93.47-1.66.48-.85.02-1.62-.22-2.02-.62a1.02 1.02 0 0 1-.3-.51h5.53c.3 0 .44-.13.44-.48a2.52 2.52 0 0 0-.76-1.72c-.64-.62-1.8-1-3.06-1-1.31 0-2.46.44-3.17 1.14-.46.45-.7 1-.7 1.59 0 .61.24 1.18.7 1.64a4.65 4.65 0 0 0 3.21 1.08 6.1 6.1 0 0 0 1.88-.28c.25-.08.49-.2.71-.33a3 3 0 0 0 .63-.5c.12-.11.22-.25.3-.4.06-.12-.15-.09-.29-.1h-1.43v.01M39.5 15.87s-.34-.08-.67-.08c-.8 0-1.62.51-2.07.93v-.8H35v5.06h1.77v-2.53c0-.98.65-1.46 1.95-1.46.17 0 .38.02.64.07l.15.03v-1.22M52.87 15.87s-.34-.08-.67-.08c-.8 0-1.62.51-2.07.93v-.8h-1.77v5.06h1.77v-2.53c0-.98.65-1.46 1.95-1.46.17 0 .38.02.65.07l.14.03v-1.22M68.73 17.88h-4.11c.14-.4.96-1.12 2.21-1.14 1.27-.02 1.88.51 2.14.9.12.2-.07.24-.24.24m-.04 1.64c-.56.34-.93.47-1.66.48-.85.02-1.61-.22-2.02-.62a1.02 1.02 0 0 1-.3-.51h5.53c.3 0 .44-.13.44-.48a2.51 2.51 0 0 0-.76-1.72c-.63-.62-1.79-1-3.06-1-1.31 0-2.46.44-3.16 1.14-.47.45-.72 1-.72 1.59 0 .61.25 1.18.72 1.64a4.66 4.66 0 0 0 3.2 1.08c.6 0 1.32-.08 1.88-.28.25-.08.49-.2.72-.33.23-.14.44-.3.62-.5.12-.11.22-.25.3-.4.06-.12-.15-.09-.28-.1H68.7v.01M11.51 17.45c.03-.05.01-.12-.05-.22-.47-.67-1.38-1.05-2.51-1.05-1.09 0-2.18.5-2.65 1.19 0 0-.07.09-.1.18h5c.13 0 .27-.02.31-.1zm1.92.28c.09.43.07.7-.06.85-.19.23-.62.24-1.22.25H0v-1.28h4.34l.07-.18c.54-1.25 2.2-2.47 4.5-2.47 2.6 0 4.24 1.43 4.52 2.83zm-.82.46c.1-.07.13-.16.12-.31-.02-.67-1.19-2.47-3.83-2.47-2.54 0-3.47 1.47-3.7 1.93l-.1.2v.01h.3c.03-.07.05-.12.1-.18.2-.39 1.15-1.7 3.4-1.7 2.63 0 3.55 1.78 3.55 2.16 0 .07-.01.1-.03.11-.08.07-.18.1-.83.1H0v.27h11.59c.84 0 .94-.06 1.02-.12zM11.85 19.7c-1.05 1.09-2.98 1.01-3.06 1-1.75-.04-2.8-.85-3.23-1.58h.82c.5.61 1.49 1.03 2.5 1.03.64 0 1.5-.09 1.94-.45h1.03zm.35 0h.9a.95.95 0 0 1-.08.11c-.65.85-1.65 1.71-4.12 1.71-2.4 0-3.95-1.18-4.46-2.4h.82c.44.89 1.7 1.82 3.52 1.85.24 0 2.38.03 3.4-1.24l.02-.03z"/></g></g></svg>