<svg width="72" height="36" xmlns="http://www.w3.org/2000/svg"><g fill-rule="nonzero" fill="none"><path fill="#0E8102" d="M0 36h72V0H0z"/><path d="M36.4 22.3c-18.96 0-32.44 1.23-32.44 1.23v.53h33.56l.36-1.75h-1.47zm2.5 0l-.3 1.76h30.6v-.53S56.57 22.4 38.9 22.3z" fill="#FFEA00"/><path d="M12.25 11.91l-1.78 8.75h6.4l.26-1.64h-4.37l.4-2.02h3.97l.3-1.75h-3.96l.36-1.64h4.42l.25-1.7h-6.25zm21.4 2.12c-2.49 0-3.5 1.39-3.9 3.4-.42 2 .54 3.44 2.54 3.44 2.37 0 3.5-1.38 3.91-3.39.41-2-.24-3.45-2.54-3.45zm14.3 0c-2.5 0-3.46 1.4-3.87 3.4-.4 2 .5 3.44 2.5 3.44 2.02 0 3.17-1 3.7-2.54h-1.87c-.26.62-.67 1.06-1.53 1.06-1.12 0-1.22-1-1.02-2.02.21-1.01.71-2.01 1.84-2.01.86 0 1.1.63 1.06 1.38h1.83c.11-1.61-.63-2.7-2.64-2.7zm-6.56.11c-.56 0-1.47.14-1.93.64l.1-.48h-1.83c-.06.42-1.88 9.76-1.88 9.76h1.78l.76-3.82c.35.57 1.34.69 1.78.69 1.8 0 2.61-1.81 2.95-3.45.35-1.71.01-3.34-1.73-3.34zm13.53 0c-3.2-.1-3.05 2.07-3.05 2.07h1.67s-.02-.85 1.17-.85c0 0 1.08-.05.92.74 0 0-.02.69-.76.64 0 0-3.55-.39-3.82 2.33 0 0-.14 1.91 1.93 1.91 0 0 1.37-.04 1.99-.74 0 0 .17.42.76.42h1.02l.3-1.27-.15-.1s-.12.01-.05-.32l.66-3.34c.29-1.46-2.6-1.49-2.6-1.49zm-35.8.16l-.87 4.14a4.3 4.3 0 0 0-.1 1c.03.93 1.12 1.38 1.73 1.38.85 0 1.4-.22 1.83-.58v.42h1.83c.04-.38.09-.73.15-1.11l1.07-5.25h-1.83l-.76 3.66c-.22.93-.87 1.11-1.33 1.11-.78 0-.83-.35-.7-.95l.8-3.82h-1.83zm6.86 0c-.07.47-1.22 6.36-1.22 6.36h1.93l.66-3.29c.08-.41.06-.84.3-1.21.2-.3.72-.4 1.03-.43h.86l.36-1.43c-.84 0-1.4-.02-2.09.48v-.48h-1.83zm33.2 0c-.06.47-1.21 6.36-1.21 6.36h1.93l.61-3.29c.08-.41.1-.84.36-1.21.2-.3.7-.4 1.01-.43h.82l.4-1.43c-.84 0-1.38-.02-2.08.48v-.48h-1.83zM33.4 15.36c1.13 0 1.18 1.05.97 2.07-.2 1.01-.54 1.96-1.78 1.96-1.12 0-1.22-1-1.02-2.02.21-1.01.71-2.01 1.83-2.01zm7.18.26c.83 0 1.06.83.86 1.8-.2.99-.69 1.81-1.63 1.81-.98 0-1.1-.93-.91-1.8.18-.88.69-1.8 1.68-1.8zm14.6 2.23s-.28 1.75-1.64 1.75c0 0-.76.05-.76-.58 0 0 .02-.82 1.12-.96 0 0 .85-.06 1.27-.2z" fill="#FFF"/></g></svg>