<svg width="72" height="36" xmlns="http://www.w3.org/2000/svg"><g fill="none" fill-rule="evenodd"><path fill="#FFF" d="M0 0h72v36H0z"/><path d="M64.61 22.5c.11.85-.41 1.52-.94 1.84a1.8 1.8 0 0 1-1.6.15c-.68-.31-.85-1.2-.5-1.9.38-.71 1.63-1.56 2.6-.89.22.16.4.42.44.8m-2.53-.25c-.45.48-.77 1.56-.02 2.02 1.07.66 2.47-.68 2.34-1.68-.17-1.25-1.68-1.02-2.32-.34" fill="#000"/><path d="M63.31 23.24c.05.21.16.36.23.54-.09.04-.25 0-.37.02-.06-.18-.17-.3-.22-.48h-.26c-.04.16-.1.3-.13.48h-.3c.08-.53.2-1.01.3-1.52.36.04.84-.1 1.07.1.3.26 0 .8-.32.86m-.48-.67c-.02.15-.05.3-.1.44.54.27 1.04-.6.1-.44" fill="#000"/><path d="M62.02 15.1l-6.92 6.55h5.52l-.6 2.75h-9.5l.57-2.66s.6-.53.85-.79c1.93-1.94 4.1-3.8 6.03-5.7h-5.5c.17-.93.4-1.82.56-2.76h9.53l-.54 2.62zM51.64 12.51c-.17.94-.4 1.82-.57 2.75-1.03-.04-2.23 0-3.23-.02-.32 1.25-.55 2.8-.9 4.16-.14.6-.35 1.5-.03 1.98.44.66 1.76.6 2.75.48-.16.87-.37 1.68-.54 2.54-2.07.56-4.26-.1-5.03-1.56-.47-.89-.4-2.23-.2-3.37.61-3.25 1.45-6.54 2.04-9.72H49c-.21.88-.39 1.81-.57 2.73 1.01.04 2.1 0 3.16.01.02 0 .05 0 .05.02M44 12.51c-.17.93-.4 1.8-.57 2.73-1.25-.15-2.53.04-3.14.88-.6 1.14-.86 2.6-1.14 4.01-.29 1.43-.62 2.88-.9 4.27h-3.04c.27-1.41.62-2.9.92-4.38.3-1.47.56-2.95 1.04-4.24a5.27 5.27 0 0 1 2.44-2.84 6.02 6.02 0 0 1 4.34-.45c.02 0 .05 0 .05.02M34.83 19.33h-7.98c-.1.55-.07 1.24.13 1.64.85 1.77 4.24.93 5.44.04.41.67.8 1.36 1.22 2.03a7.7 7.7 0 0 1-3.18 1.4c-2.11.4-4.25.06-5.37-1.11-1.05-1.1-1.36-3.07-1.04-4.91.48-2.7 1.92-4.85 4.28-5.75 2.01-.76 4.53-.3 5.75.97.59.6.99 1.49 1.07 2.7a9.02 9.02 0 0 1-.32 2.99m-6-4.21a3.3 3.3 0 0 0-1.32 1.7c1.52.03 3.35 0 4.9.01.32-2.1-2.17-2.62-3.58-1.71M24.23 9.76c-1.06 4.86-2.08 9.76-3.12 14.64h-3.04c.35-1.7.71-3.39 1.08-5.07-1.6-.03-3.64-.03-5.36 0-.38 1.67-.71 3.4-1.09 5.07H9.65c1-4.91 2.08-9.75 3.09-14.65h3.09c-.5 2.26-.97 4.52-1.45 6.8 1.74.04 3.56 0 5.34.01.5-2.25.97-4.54 1.46-6.81 1.01 0 2.07-.03 3.05.01" fill="#131313"/><path fill="#FFD100" d="M58.92 29H8.6l.7-3h50.3z"/></g></svg>