<svg width="72" height="36" xmlns="http://www.w3.org/2000/svg"><g fill-rule="nonzero" fill="none"><path fill="#FFF" d="M0 0h72v36H0z"/><path d="M48.4 29.27v-.26h.16c.05 0 .15.06.15.16s-.05.1-.15.1h-.16zm0 .21h.1l.21.41h.26l-.26-.46c.16 0 .26-.05.26-.26 0-.2-.15-.31-.41-.31h-.42v1.02h.26v-.4zm1.07-.1c0-.6-.46-.92-.91-.92-.52 0-.97.31-.97.92 0 .6.47.91.97.91.46 0 .91-.3.91-.91zm-.24 0c0 .46-.3.7-.65.7-.42 0-.66-.25-.66-.7 0-.42.26-.71.66-.71.34 0 .65.31.65.7z" fill="#939598"/><path fill="#348FCB" d="M41.9 11.66l1.36-4.02h-5.19V7.6l-1.36 4.07zM7.43 16.75h5.28l1.28-3.7h2.3l1.82-5.4H7.23l-1.85 5.4H8.7zM7.23 17.32l-2.4 7.12h5.3l2.45-7.12zM15.37 17.32l-2.45 7.12h5.24l2.4-7.12zM23.87 7.59v.05-.05zM15.58 16.75h10.85l.91-2.74c.47-1.49-.52-2.45-2.09-2.45-1.12 0-2.29.3-3.57 2.5l2.2-6.42h-5.25l-3.05 9.11zM23.77 24.44h.05-.05zM21.11 17.32l-2.38 7.12h5.04l2.45-7.12zM34.47 16.75l1.72-5.24c-2.35 0-2.95.96-3.92 2.29l.56-1.62H28.5l-1.57 4.59 7.54-.02zM26.77 17.32l-2.45 7.12h5.2l2.4-7.12zM40.16 16.75l1.59-4.57h-5.2l-1.58 4.57zM37.57 24.44l2.38-7.12h-5.14l-2.43 7.12zM47.7 16.75l1.53-4.59h-2.5c-.1 0-.47.1-.47-.15 0-.26.1-.37.47-.37h3.26l1.33-4.02h-5.2c-1.87 0-2.63 1.18-3.2 2.64l-2.2 6.47h6.98v.02zM45.76 17.32h-5.24l-2.4 7.12h5.2zM52.23 24.44l2.38-7.12h-5.38l-2.4 7.12zM58.94 16.75l-.29-4.57H56.1l1.53-4.54h.04-4.89l-1.56 4.54h-1.44l-1.51 4.57z"/><path fill="#348FCB" d="M54.61 17.32l.37 5.45-4.94 7.47h5.3l8.74-12.92zM62 12.18l-3.06 4.57h5.56l3.05-4.57z"/></g></svg>